<svg id="Layer_1" data-name="Layer 1" xmlns="http://www.w3.org/2000/svg" xmlns:xlink="http://www.w3.org/1999/xlink" viewBox="0 0 1280 800"><defs><style>.cls-1{fill:none;}.cls-2{fill:#a4e6da;}.cls-3{clip-path:url(#clip-path);}.cls-4{fill:#141720;}.cls-5{fill:#ecc19c;}.cls-6{fill:#eb6d4a;}.cls-7{fill:#e7ecf2;}.cls-8{fill:#ecf0f1;}.cls-9{fill:#35495e;}.cls-10{fill:#e64c3c;}.cls-11{fill:#f0c419;}.cls-12{fill:#24ae5f;}.cls-13{fill:#0096e6;}.cls-14{fill:#8697cb;}.cls-15{fill:#9777a8;}.cls-16{fill:#5c546a;}.cls-17{fill:#868491;}.cls-18{fill:#b4b6bc;}</style><clipPath id="clip-path"><path class="cls-1" d="M469,405A142,142,0,1,0,611,263,142,142,0,0,0,469,405"/></clipPath></defs><title>Artboard 1</title><path class="cls-2" d="M753,405A142,142,0,1,1,611,263,142,142,0,0,1,753,405"/><g class="cls-3"><rect class="cls-4" x="536.54" y="346.43" width="148.91" height="200.57"/></g><g class="cls-3"><path class="cls-5" d="M693.33,566v0H528.68v0a81.9,81.9,0,0,1,4.39-26.58q.77-2.26,1.68-4.47v0c.54-1.37,1.15-2.72,1.78-4l.14-.31a80.34,80.34,0,0,1,6-10.44c1.27-1.89,2.64-3.76,4.07-5.54,1-1.23,2-2.42,3-3.57.51-.59,1.06-1.16,1.6-1.74s1.09-1.12,1.65-1.68a1.27,1.27,0,0,1,.15-.14,80.57,80.57,0,0,1,8.74-7.53c1.57-1.16,3.15-2.25,4.8-3.3.2-.14.42-.26.64-.39,1.43-.92,2.89-1.77,4.38-2.58a.06.06,0,0,1,0,0h0l0,0c.54-.28,1.07-.59,1.6-.93l.36-.2c.44-.26.87-.54,1.31-.82.14-.09.28-.19.42-.26.37-.25.74-.5,1.12-.78s.93-.65,1.38-1c0,0,0,0,0,0s0,0,0,0c.43-.31.87-.64,1.29-1l0,0a51.9,51.9,0,0,0,7.15-6.91,52.9,52.9,0,0,0,9.45-16.25,49.92,49.92,0,0,0,1.46-4.86c.31-1.16.56-2.34.78-3.54a52.75,52.75,0,0,0,.81-9.19l12,.06h.12l2,0,10.18,0a52.24,52.24,0,0,0,.78,9c.2,1.21.46,2.4.77,3.58a48.28,48.28,0,0,0,1.41,4.78,51.89,51.89,0,0,0,8.91,15.7,50.85,50.85,0,0,0,7.64,7.54c.4.34.81.67,1.23,1a1.83,1.83,0,0,0,.41.29.12.12,0,0,0,.06.06.63.63,0,0,1,.17.11.33.33,0,0,1,.09.06,3.53,3.53,0,0,0,.39.29l1.1.76.36.25.84.56.87.53,1,.57c.31.2.64.39,1,.56a1.41,1.41,0,0,1,.28.14l.51.28.31.19,1.23.7c.67.39,1.35.79,2,1.21s1.27.79,1.89,1.24c1.29.82,2.55,1.72,3.77,2.65a0,0,0,0,0,0,0h0c1.57,1.16,3.09,2.41,4.58,3.68s2.73,2.44,4,3.74l.26.25A82,82,0,0,1,693.33,566"/></g><g class="cls-3"><path class="cls-6" d="M693.33,566H528.68a81.9,81.9,0,0,1,4.39-26.58q.77-2.26,1.68-4.47v0c.54-1.37,1.15-2.72,1.78-4l.14-.31a80.34,80.34,0,0,1,6-10.44c1.27-1.89,2.64-3.76,4.07-5.54,1-1.23,2-2.42,3-3.57.51-.59,1.06-1.16,1.6-1.74s1.09-1.12,1.65-1.68a1.27,1.27,0,0,1,.15-.14,80.57,80.57,0,0,1,8.74-7.53c1.57-1.16,3.15-2.25,4.8-3.3.2-.14.42-.26.64-.39,1.43-.92,2.89-1.77,4.38-2.58a0,0,0,0,1,0,0s0,0,0,0h0v0h0l1.6-.93.36-.2c.44-.26.87-.54,1.31-.82l1.26-.85.51-.37c.39-.26.78-.54,1.15-.82l.06,0,0,0,1.21-1,0,0,0,0c.88.9,1.78,1.77,2.75,2.59.47.4.95.79,1.43,1.18,0,0,0,0,0,0,.45.36.88.7,1.34,1a3.4,3.4,0,0,0,.31.22c.47.33.93.65,1.4,1,1.06.7,2.14,1.35,3.24,2,.56.31,1.12.6,1.69.88s1.18.56,1.77.81a.52.52,0,0,0,.23.11c.67.29,1.33.57,2,.82s1.38.5,2.08.71c.53.17,1.06.33,1.6.47s1,.26,1.44.37a1.17,1.17,0,0,0,.34.08,47.91,47.91,0,0,0,4.83.84c.56.06,1.12.12,1.69.17,1.15.09,2.3.14,3.46.14h.12c.34,0,.68,0,1,0a0,0,0,0,0,0,0,1.53,1.53,0,0,0,.37,0,.1.1,0,0,0,.09,0c.17,0,.33,0,.5,0,.73,0,1.44-.08,2.16-.14s1.24-.14,1.85-.22a1.13,1.13,0,0,0,.25,0,1.27,1.27,0,0,0,.23,0c.48-.06.95-.16,1.41-.23l.16,0a.51.51,0,0,0,.22,0l.19,0,.54-.11.74-.16c.24-.05.48-.1.72-.17.68-.17,1.37-.34,2-.54s1.33-.41,2-.64c1-.34,2-.73,3-1.15.65-.28,1.27-.56,1.91-.88s1.07-.53,1.58-.82.76-.42,1.13-.64a14.17,14.17,0,0,0,1.23-.73l.33-.19c.34-.22.67-.43,1-.67s.36-.23.53-.36.2-.14.29-.2c.45-.31.88-.64,1.32-1,0,0,0,0,0,0a3.36,3.36,0,0,0,.29-.22c.2-.15.42-.33.62-.51s.65-.51,1-.78c1-.87,2-1.8,3-2.76l0,0c.53.43,1.07.85,1.62,1.27a.12.12,0,0,0,.06.06.63.63,0,0,1,.17.11.33.33,0,0,1,.09.06c.48.36,1,.72,1.49,1.06l.36.25c.56.37,1.13.73,1.71,1.09s1.29.76,1.94,1.12a1.6,1.6,0,0,1,.28.14l.5.29.31.19,1.23.7c.67.39,1.35.79,2,1.21s1.27.79,1.89,1.24c1.29.82,2.55,1.72,3.77,2.65h0c1.57,1.18,3.1,2.41,4.58,3.69s2.73,2.44,4,3.74l.26.25A82,82,0,0,1,693.33,566"/></g><g class="cls-3"><path class="cls-7" d="M611.14,502l0,.08,0,0s0,.08-.08.11a22.45,22.45,0,0,1-35.26,3.07l-8.43-9c1.43-.92,2.89-1.77,4.38-2.58a.06.06,0,0,1,0,0h0v0h0l1.6-.93.36-.2,1.3-.82c.14-.09.28-.19.42-.26l.84-.59.28-.19c.47-.33.93-.65,1.38-1,0,0,0,0,0,0a.47.47,0,0,1,.09-.09l1.21-1,0,0c.88.9,1.8,1.77,2.76,2.58.47.42.95.82,1.43,1.18,0,0,0,0,0,0,.44.37.88.72,1.34,1a3.4,3.4,0,0,0,.31.22,16.68,16.68,0,0,0,1.4,1,33,33,0,0,0,3.24,2c.56.31,1.12.6,1.69.88s1.18.56,1.77.81a.52.52,0,0,0,.23.11,42.16,42.16,0,0,0,4.1,1.54c.53.17,1.06.33,1.6.47s1,.26,1.44.37a1.17,1.17,0,0,0,.34.08,35.28,35.28,0,0,0,4.83.84c.56.08,1.12.14,1.69.17,1.13.11,2.28.16,3.45.16h.2Z"/></g><g class="cls-3"><path class="cls-7" d="M654.86,496.4l-8.3,8.91a22.46,22.46,0,0,1-35.34-3.18l0,0-.06-.08a44.3,44.3,0,0,0,31.64-13.35l0,0a41.82,41.82,0,0,0,3.43,2.56l.36.25c.56.37,1.13.73,1.71,1.09s1.29.76,1.94,1.12a1.6,1.6,0,0,1,.28.14c1.37.76,2.71,1.55,4,2.39l.31.2"/></g><g class="cls-3"><path class="cls-4" d="M655,314.33A76.55,76.55,0,0,1,649,344c-.34.81-.68,1.6-1.07,2.39a77.08,77.08,0,0,1-36.89,37.34s0,0-.08,0a77.16,77.16,0,0,1-53.84,4.45,79.22,79.22,0,0,1-8.38-2.92h0l-.95-.42-.76-.33a76.65,76.65,0,0,1-4.5-8.79A74.48,74.48,0,0,1,611,272h.08a74.06,74.06,0,0,1,36.63,9.67c.47,1,.9,2,1.33,3a75.07,75.07,0,0,1,3.52,10.46v0A77,77,0,0,1,655,314.33"/></g><g class="cls-3"><path class="cls-4" d="M685.44,346.43a74.22,74.22,0,0,1-7.37,32.34,76.87,76.87,0,0,1-29-94.14c.25-.59.5-1.16.76-1.75a74.43,74.43,0,0,1,35.65,63.55"/></g><g class="cls-3"><path class="cls-5" d="M674.19,342.69v47.4c0,.62,0,1.23,0,1.85s0,1.1-.06,1.66,0,1-.09,1.49,0,.71-.08,1.07,0,.42-.06.64c0,.39-.06.79-.13,1.18-.06.75-.15,1.47-.26,2.22,0,.19,0,.37-.08.56,0,.37-.11.74-.17,1.12v0a1.08,1.08,0,0,0,0,.22c-.09.46-.17.93-.25,1.4-.14.74-.28,1.49-.43,2.22,0,0,0,.06,0,.09a2.83,2.83,0,0,1-.06.33s0,.06,0,.09c-.06.33-.14.65-.22,1l0,.22a3.17,3.17,0,0,1-.12.51c0,.28-.13.56-.19.84s-.08.33-.14.48-.08.28-.11.4c-.33,1.27-.7,2.51-1.09,3.76-.19.59-.37,1.16-.57,1.75,0,.06,0,.13-.06.19-.17.5-.36,1-.53,1.51l0,.08-.19.48c-.19.5-.37,1-.57,1.49s-.48,1.2-.73,1.79-.45,1.05-.68,1.58c0,.09-.08.17-.11.26-.26.56-.51,1.12-.78,1.66s-.54,1.15-.84,1.72l0,.08c-.54,1.1-1.13,2.22-1.72,3.29l-.84,1.49a91.26,91.26,0,0,1-7.93,11.55q-.58.77-1.21,1.49c-.57.7-1.16,1.38-1.75,2s-1,1.13-1.54,1.68a.27.27,0,0,1-.06.08q-2.23,2.4-4.56,4.55c-.31.31-.64.59-1,.88-.53.48-1.06.95-1.6,1.4s-.85.73-1.29,1.09c-1.12.92-2.23,1.8-3.37,2.62-.47.36-.95.7-1.43,1-.78.56-1.57,1.09-2.36,1.6-.43.29-.88.57-1.33.84a1.69,1.69,0,0,1-.22.12c-1.51.93-3,1.78-4.55,2.53l-1.16.57-1.21.56q-.77.35-1.54.65a4.64,4.64,0,0,1-.6.23c-.61.25-1.23.48-1.83.68-.76.28-1.54.51-2.3.73-.53.15-1.07.29-1.6.42a.22.22,0,0,1-.11,0c-.53.13-1.05.25-1.58.34l-.42.08c-.44.08-.87.15-1.3.2-.62.09-1.24.17-1.86.2a4.51,4.51,0,0,1-.64,0c-.5,0-1,0-1.46,0H611c-.48,0-1,0-1.44,0a3.47,3.47,0,0,1-.56,0c-.43,0-.88-.06-1.35-.13l-.29,0c-.57-.08-1.15-.17-1.74-.28s-1-.19-1.5-.31a44.49,44.49,0,0,1-8.15-2.75,59.31,59.31,0,0,1-7.12-3.76l-.4-.25c-1.06-.65-2.12-1.35-3.17-2.08-.59-.42-1.18-.84-1.77-1.27-1.85-1.35-3.68-2.82-5.48-4.41l-1.49-1.37L575,451c-1.15-1.1-2.27-2.24-3.34-3.43-.08-.06-.14-.14-.2-.2q-.67-.72-1.35-1.49c-1.24-1.4-2.45-2.84-3.6-4.35-.45-.54-.87-1.1-1.29-1.66-1.57-2.08-3.06-4.25-4.46-6.5-.37-.6-.74-1.23-1.1-1.83s-.85-1.47-1.27-2.22c-.6-1.09-1.18-2.19-1.74-3.3-.9-1.75-1.72-3.56-2.48-5.39-.19-.44-.37-.87-.53-1.3s-.47-1.13-.67-1.69c-.09-.26-.2-.53-.28-.79q-.33-.84-.6-1.68c-.28-.82-.54-1.66-.81-2.5s-.48-1.62-.7-2.44-.48-1.75-.68-2.65c0-.09,0-.19-.06-.28s0,0,0-.08c-.29-1.21-.54-2.45-.78-3.69-.09-.47-.17-.93-.23-1.41-.22-1.21-.37-2.45-.51-3.69-.08-.54-.12-1.09-.17-1.63s-.11-1.13-.14-1.71c-.08-1-.12-2.09-.15-3.15,0-.62,0-1.23,0-1.85v-47.4a63.19,63.19,0,0,1,59.72-63.09l.17,0,1.3,0c.65,0,1.29,0,1.94,0H611c.67,0,1.34,0,2,0h.14c.47,0,.93,0,1.4.06h0l.65,0c.47,0,.93.06,1.38.11.23,0,.45,0,.68.06l.45,0a65.06,65.06,0,0,1,7.25,1.19,63.2,63.2,0,0,1,21.79,9.56c1.46,1,2.86,2,4.21,3.17l1.55,1.3v0a61.45,61.45,0,0,1,8.18,8.61,62.76,62.76,0,0,1,13.44,38.41c0,.19,0,.37,0,.56"/></g><g class="cls-3"><path class="cls-4" d="M685.44,346.43c0,.84,0,1.66,0,2.5s-.06,1.63-.13,2.44v.09c0,.81-.12,1.6-.2,2.39s-.17,1.62-.28,2.42-.23,1.62-.36,2.41-.28,1.6-.44,2.39a.56.56,0,0,0,0,.17c-.31,1.52-.67,3-1.07,4.5-.23.87-.47,1.72-.73,2.58s-.53,1.69-.82,2.53-.56,1.55-.84,2.31a.86.86,0,0,0-.08.19c-.33.81-.65,1.63-1,2.44-.42,1-.87,2-1.35,3-1.32-.85-2.62-1.75-3.88-2.72-.45-.33-.9-.65-1.34-1s-.95-.73-1.41-1.1c-1.32-1.07-2.61-2.19-3.85-3.37-.34-.31-.68-.62-1-1-.53-.5-1-1-1.55-1.52a75.18,75.18,0,0,1-5.93-6.81c-.56-.71-1.09-1.43-1.61-2.17s-1-1.41-1.49-2.14a79.33,79.33,0,0,1-4.52-7.68q-.49-.93-.93-1.91c-.16-.31-.31-.62-.45-.95a.05.05,0,0,1,0,0c-.36-.78-.71-1.57-1-2.36-.34.81-.68,1.6-1.07,2.39a77.1,77.1,0,0,1-36.89,37.34s0,0-.08,0a77.13,77.13,0,0,1-53.84,4.45,79.79,79.79,0,0,1-8.38-2.92h0l-.95-.42-.76-.33a76.46,76.46,0,0,1-4.5-8.78A74.48,74.48,0,0,1,611,272h.08a74.07,74.07,0,0,1,36.62,9.67c.7.39,1.4.81,2.09,1.23a74.43,74.43,0,0,1,35.65,63.55"/></g><path class="cls-8" d="M1064.72,355H841.28a8.28,8.28,0,0,1-8.28-8.28V148.1h240V346.72a8.28,8.28,0,0,1-8.28,8.28"/><path class="cls-9" d="M1073,148.1H833V123.28a8.28,8.28,0,0,1,8.28-8.28h223.45a8.28,8.28,0,0,1,8.28,8.28Z"/><path class="cls-10" d="M853.69,131.55a4.14,4.14,0,1,1-4.14-4.14,4.13,4.13,0,0,1,4.14,4.14"/><path class="cls-11" d="M870.24,131.55a4.14,4.14,0,1,1-4.14-4.14,4.13,4.13,0,0,1,4.14,4.14"/><path class="cls-12" d="M886.79,131.55a4.14,4.14,0,1,1-4.14-4.14,4.13,4.13,0,0,1,4.14,4.14"/><path class="cls-13" d="M882.66,172.93h-29a4.14,4.14,0,0,1,0-8.28h29a4.14,4.14,0,1,1,0,8.28"/><path class="cls-10" d="M961.28,172.93H907.48a4.14,4.14,0,0,1,0-8.28h53.79a4.14,4.14,0,1,1,0,8.28"/><path class="cls-11" d="M907.48,197.76H853.69a4.14,4.14,0,0,1,0-8.28h53.79a4.14,4.14,0,1,1,0,8.28"/><path class="cls-12" d="M948.86,197.76H932.31a4.14,4.14,0,1,1,0-8.28h16.55a4.14,4.14,0,1,1,0,8.28"/><path class="cls-14" d="M882.66,222.59h-29a4.14,4.14,0,0,1,0-8.28h29a4.14,4.14,0,1,1,0,8.28"/><path class="cls-10" d="M948.86,222.59H907.48a4.14,4.14,0,1,1,0-8.28h41.38a4.14,4.14,0,1,1,0,8.28"/><path class="cls-12" d="M907.48,247.41H853.69a4.14,4.14,0,0,1,0-8.28h53.79a4.14,4.14,0,1,1,0,8.28"/><path class="cls-11" d="M948.86,247.41H932.31a4.14,4.14,0,1,1,0-8.28h16.55a4.14,4.14,0,1,1,0,8.28"/><path class="cls-15" d="M853.69,338.45a4.14,4.14,0,0,1,0-8.28A8.28,8.28,0,0,0,862,321.9V309.48a4.12,4.12,0,0,1,1.21-2.93l5.35-5.35-5.35-5.35a4.12,4.12,0,0,1-1.21-2.94l0-12.41a8.3,8.3,0,0,0-8.31-8.26,4.14,4.14,0,0,1,0-8.28,16.59,16.59,0,0,1,16.58,16.55l0,10.7,7.06,7.06a4.13,4.13,0,0,1,0,5.85l-7.06,7.06v10.7a16.57,16.57,0,0,1-16.55,16.55"/><path class="cls-16" d="M348.12,227.35l-7.94-7.94a3.74,3.74,0,0,0-5.29,0l-15,15a3.74,3.74,0,0,0,0,5.29l7.94,7.94a7.5,7.5,0,0,0,10.59,0l9.67-9.68a7.48,7.48,0,0,0,0-10.59Z"/><path class="cls-17" d="M333.06,201.34a3.75,3.75,0,0,0-3.54,1L303,228.83a3.74,3.74,0,0,0,1.48,6.2l18.07,7.29,20.26-20.26-7.09-18.2A3.75,3.75,0,0,0,333.06,201.34Z"/><path class="cls-16" d="M304.5,235l18.07,7.29,10.06-10.06-16.52-16.52L303,228.83a3.74,3.74,0,0,0,1.48,6.2Z"/><path class="cls-16" d="M264,153.11l-10.57,10.57a.47.47,0,0,1-.66,0L227,137.82a.47.47,0,0,1,0-.66l10.57-10.57a.47.47,0,0,1,.66,0L264,152.45A.47.47,0,0,1,264,153.11Z"/><path class="cls-16" d="M351.57,309.65H335.31a3.74,3.74,0,1,1,0-7.49h16.26a7.54,7.54,0,0,0,5.29-2.19l8.71-8.71a3.74,3.74,0,0,1,5.29,5.29l-8.71,8.71A15.06,15.06,0,0,1,351.57,309.65Z"/><path class="cls-17" d="M276.93,216.08a52.56,52.56,0,0,0,34.93,62.52l-6.47,21.51a74.83,74.83,0,0,1-49.66-91.51Z"/><path class="cls-16" d="M393.45,232.15l-10.59-10.59a3.74,3.74,0,0,0-5.29,0L325.5,273.65a3.74,3.74,0,0,0-.69,4.35L332,292a3.74,3.74,0,0,0,2.75,2,3.86,3.86,0,0,0,.58,0,3.73,3.73,0,0,0,2.65-1.1l55.5-55.5A3.74,3.74,0,0,0,393.45,232.15Z"/><path class="cls-17" d="M400.94,269.58,390.36,259a3.74,3.74,0,0,0-5.29,0l-25.56,25.56a3.74,3.74,0,0,0,0,5.29l10.59,10.59a3.74,3.74,0,0,0,5.29,0l25.56-25.56A3.74,3.74,0,0,0,400.94,269.58Z"/><path class="cls-18" d="M320.34,272.23a18.74,18.74,0,0,0-18.71,18.71v41.17a3.74,3.74,0,1,0,7.49,0h22.46a3.74,3.74,0,1,0,7.49,0V290.94A18.74,18.74,0,0,0,320.34,272.23Z"/><path class="cls-18" d="M334.81,202.33l-54.92-54.71a11.25,11.25,0,0,0-15.88,0L248.13,163.5a11.23,11.23,0,0,0,0,15.88l5.94,5.93a3.74,3.74,0,0,0,5.29,0l24.39,24.39h0a3.74,3.74,0,0,0,0,5.29L303,234.13a3.74,3.74,0,0,0,5.28,0l26.5-26.5a3.74,3.74,0,0,0,0-5.3Z"/><path class="cls-17" d="M283.76,215,303,234.13a3.74,3.74,0,0,0,5.28,0L321.4,221,256,155.63l-7.87,7.87a11.23,11.23,0,0,0,0,15.88l5.94,5.93a3.74,3.74,0,0,0,5.29,0l24.39,24.39h0A3.74,3.74,0,0,0,283.76,215Z"/><path class="cls-17" d="M346.54,328.37h-52.4a15,15,0,0,0-15,15v7.49a3.74,3.74,0,0,0,3.74,3.74h74.86a3.74,3.74,0,0,0,3.74-3.74v-7.49A15,15,0,0,0,346.54,328.37Z"/><circle class="cls-16" cx="271.68" cy="197.37" r="22.46"/><circle class="cls-17" cx="271.68" cy="197.37" r="11.23"/><circle class="cls-16" cx="320.19" cy="290.94" r="7.49"/><path class="cls-17" d="M244.56,128.32,228.68,144.2a3.74,3.74,0,0,1-5.29,0l-5.29-5.29a3.74,3.74,0,0,1,0-5.29L234,117.73a3.74,3.74,0,0,1,5.29,0l5.29,5.29A3.74,3.74,0,0,1,244.56,128.32Z"/><path class="cls-16" d="M226,125.67l-7.94,7.94a3.74,3.74,0,0,0,0,5.29l5.29,5.29a3.74,3.74,0,0,0,5.29,0l7.94-7.94Z"/></svg>