<?xml version="1.0" encoding="utf-8"?>
<!-- Generator: Adobe Illustrator 21.1.0, SVG Export Plug-In . SVG Version: 6.00 Build 0)  -->
<svg version="1.1" id="Layer_1" xmlns="http://www.w3.org/2000/svg" xmlns:xlink="http://www.w3.org/1999/xlink" x="0px" y="0px"
	 viewBox="0 0 496 496" style="enable-background:new 0 0 496 496;" xml:space="preserve">
<style type="text/css">
	.st0{fill:#F9F7F7;}
</style>
<g>
	<g>
		<g>
			<path class="st0" d="M71.5,411.6L45.1,496h405.8l-26.4-84.4c-6.2-19.9-18.7-37-34.9-49.3c-2.9-2.9-5.5-6.9-8-11.4
				c3.1,0.6,6.5,1.1,10.3,1.1c28.6,0,38.7-19.6,39.2-20.4l2.9-5.8l-15-12c-17.2-13.7-27-34.2-27-56.2V216v-96
				c0-33-25.2-60.3-57.3-63.6C326.9,23.8,297.4,0,263.4,0H248c-79.4,0-144,64.6-144,144v72v41.6c0,22-9.8,42.5-27,56.2l-15,12
				l2.9,5.8c0.4,0.8,10.5,20.4,39.2,20.4c3.8,0,7.2-0.5,10.3-1.1c-2.4,4.5-5.1,8.5-8,11.4C90.2,374.6,77.7,391.7,71.5,411.6z
				 M409,326.3l3.7,2.9c-3.7,3.2-10.3,6.8-20.7,6.8c-12.2,0-18.2-5.5-18.3-5.7l-0.3,0.3c-2.7-8.3-4.6-15.9-5.5-20.2l-15.7,3.1
				c0.2,1.1,3.6,17.8,10.5,34.3c-5.6-2-11.4-3.5-17.4-4.4l-41.3-6.4v-8.3c26.9-15.6,46.8-42.1,53.5-73.4c6.9-1,13.2-3.6,18.5-7.6
				v9.8C376,284.4,388,309.5,409,326.3z M248,328c-52.9,0-96-43.1-96-96v-36.2c0-15.3,12.5-27.8,27.8-27.8h27.7
				c42.8,0,85.1-11,122.4-31.9c7.9,0.9,14.1,7.7,14.1,15.9v80C344,284.9,300.9,328,248,328z M288,336.5v6.3
				c-1.4,4.2-9.8,25.2-40,25.2c-30.2,0-38.6-20.9-40-25.2v-6.3c12.4,4.8,25.9,7.5,40,7.5S275.6,341.3,288,336.5z M359.7,238.6
				c0.1-2.2,0.3-4.4,0.3-6.6v-38.5c9.3,3.3,16,12.1,16,22.5C376,226.5,369.1,235.4,359.7,238.6z M120,144c0-70.6,57.4-128,128-128
				h15.4c28.3,0,52.7,21.1,56.6,49.1l1,6.9h6.9c26.5,0,48,21.5,48,48v64.2c-4.7-3.5-10.1-6.2-16-7.4V152c0-17.6-14.4-32-32-32h-2.1
				l-1.8,1.1c-35.4,20.2-75.7,30.9-116.5,30.9h-27.7c-17.2,0-32,9.9-39.2,24.3c-7.7,0.7-14.8,3.4-20.6,7.9V144z M136.1,193.4
				c0,0.8-0.1,1.6-0.1,2.4V232c0,2.2,0.2,4.4,0.3,6.6c-9.5-3.2-16.3-12.1-16.3-22.6C120,205.5,126.8,196.7,136.1,193.4z M104,336
				c-10.4,0-17-3.6-20.7-6.8l3.7-2.9c21-16.8,33-41.8,33-68.7v-9.8c5.3,4,11.6,6.7,18.5,7.6c6.7,31.3,26.6,57.8,53.5,73.4v8.3
				l-41.3,6.4c-6,0.9-11.8,2.4-17.4,4.4c6.9-16.6,10.3-33.2,10.5-34.3l-15.7-3.1c-0.9,4.3-2.8,11.9-5.5,20.1l-0.2-0.3
				C122.2,330.5,116.2,336,104,336z M153.1,359.3l41.6-6.4c5.7,12.2,19.7,27.7,45.2,30.5V464h16v-80.6c25.6-2.8,39.5-18.3,45.2-30.5
				l41.6,6.4c31,4.8,57,27.2,66.4,57.1l19.9,63.6h-62.1l-7.1-57l-15.9,2l6.9,55H145.1l6.9-55l-15.9-2l-7.1,57H66.9l19.9-63.6
				C96.1,386.5,122.2,364.1,153.1,359.3z"/>
			<circle class="st0" cx="196" cy="188" r="12"/>
			<circle class="st0" cx="300" cy="188" r="12"/>
			<path class="st0" d="M248,280c-26.5,0-48-21.5-48-48h-16c0,35.3,28.7,64,64,64s64-28.7,64-64h-16C296,258.5,274.5,280,248,280z"
				/>
			<rect x="272" y="392" class="st0" width="16" height="16"/>
			<rect x="272" y="424" class="st0" width="16" height="16"/>
		</g>
	</g>
</g>
</svg>
